<svg width="100%" height="100%" viewBox="0 0 284 108" fill="none" xmlns="http://www.w3.org/2000/svg">
<g clip-path="url(#clip0_35_2)">
<rect x="2" y="2" width="280" height="104" rx="10" fill="#F5F3EE"/>
<path d="M110.503 63L105.972 63L98.5305 47.082L96.382 41.9648L96.382 54.8359L96.382 63L93.1398 63L93.1398 37.4727L97.6125 37.4727L104.702 52.5508L107.261 58.3906L107.261 44.7188L107.261 37.4727L110.503 37.4727L110.503 63ZM126.846 40.4023L120.967 40.4023L120.967 37.4727L136.241 37.4727L136.241 40.4023L130.362 40.4023L130.362 60.0313L136.241 60.0313L136.241 63L120.967 63L120.967 60.0313L126.846 60.0313L126.846 40.4023ZM166.197 63L162.408 63L160.63 57.4336L150.005 57.4336L148.209 63L144.595 63L153.072 37.4727L157.837 37.4727L166.197 63ZM159.634 54.3281L155.318 40.6758L151.002 54.3281L159.634 54.3281ZM190.88 63L186.348 63L178.907 47.082L176.759 41.9648L176.759 54.8359L176.759 63L173.516 63L173.516 37.4727L177.989 37.4727L185.079 52.5508L187.638 58.3906L187.638 44.7188L187.638 37.4727L190.88 37.4727L190.88 63Z" fill="#202020"/>
<g opacity="0.6">
<rect x="54.321" y="64.63" width="39" height="39" transform="rotate(18 54.321 64.63)" fill="white" stroke="black"/>
<path d="M70.384 97.713L66.5213 109.601L67.4724 109.91L71.3351 98.022L83.2233 101.885L83.5323 100.934L71.6441 97.0709L75.3523 85.6583L87.2405 89.521L87.5495 88.5699L75.6613 84.7072L79.524 72.819L78.573 72.51L74.7102 84.3982L63.2976 80.69L67.1603 68.8018L66.2092 68.4927L62.3465 80.381L50.4583 76.5182L50.1493 77.4693L62.0375 81.332L58.3293 92.7447L46.4411 88.882L46.1321 89.833L58.0203 93.6957L54.1576 105.584L55.1086 105.893L58.9713 94.0048L70.384 97.713Z" fill="black"/>
<path d="M76.431 110.192L75.1382 109.772L74.4907 104.541L74.3521 102.882L73.1589 106.554L72.4021 108.883L71.477 108.583L73.8435 101.299L75.1196 101.714L75.7447 106.673L75.9333 108.577L77.2008 104.676L77.8725 102.608L78.7976 102.909L76.431 110.192Z" fill="black"/>
<path d="M66.3369 99.7968L64.1803 99.096L62.089 105.532L61.086 105.206L63.1773 98.7701L61.0207 98.0694L61.2959 97.2224L66.6122 98.9497L66.3369 99.7968Z" fill="black"/>
<path d="M53.2533 98.583C53.0409 99.2368 52.7794 99.7762 52.4688 100.201C52.162 100.627 51.826 100.953 51.4608 101.18C51.1006 101.403 50.7193 101.534 50.3168 101.572C49.9193 101.607 49.5255 101.561 49.1355 101.434C48.6674 101.282 48.2859 101.066 47.991 100.785C47.701 100.502 47.4927 100.163 47.3662 99.7691C47.2434 99.3759 47.2005 98.9328 47.2375 98.4396C47.2758 97.9427 47.3884 97.4064 47.5755 96.8306C47.7856 96.1841 48.044 95.6479 48.3508 95.2219C48.6576 94.7958 48.9912 94.4709 49.3514 94.247C49.7166 94.0207 50.0979 93.8899 50.4954 93.8548C50.8941 93.8159 51.2885 93.8599 51.6786 93.9866C52.1467 94.1387 52.5257 94.3563 52.8157 94.6395C53.1094 94.9239 53.3195 95.2632 53.446 95.6575C53.5738 96.0482 53.6191 96.4901 53.5821 96.9832C53.5488 97.4776 53.4392 98.0108 53.2533 98.583ZM52.1988 98.3204C52.3376 97.8932 52.431 97.4923 52.4788 97.1176C52.5315 96.7404 52.5271 96.4001 52.4655 96.0967C52.4039 95.7933 52.2808 95.5336 52.0964 95.3176C51.9156 95.1028 51.6636 94.9429 51.3404 94.8378C51.0284 94.7364 50.7343 94.7251 50.4582 94.8038C50.187 94.88 49.9367 95.0245 49.7073 95.2375C49.4791 95.4468 49.273 95.7145 49.089 96.0408C48.9061 96.3634 48.7513 96.7197 48.6246 97.1098C48.4845 97.5407 48.39 97.9454 48.341 98.3238C48.2932 98.6984 48.2983 99.0369 48.3561 99.3391C48.4189 99.6388 48.5407 99.896 48.7215 100.111C48.9022 100.326 49.1523 100.485 49.4718 100.589C49.7839 100.69 50.0774 100.703 50.3523 100.628C50.6284 100.55 50.8805 100.406 51.1087 100.196C51.3418 99.9847 51.5498 99.7175 51.7326 99.395C51.9155 99.0724 52.0709 98.7142 52.1988 98.3204Z" fill="black"/>
<path d="M80.6879 97.9065L79.5678 97.5426L79.238 94.8602C79.2142 94.6553 79.1783 94.4814 79.1303 94.3384C79.0834 94.1918 79.0207 94.0687 78.9422 93.9693C78.8685 93.8673 78.7771 93.7821 78.6678 93.7138C78.5623 93.6467 78.4371 93.5895 78.2922 93.5425L77.8241 93.3904L76.7703 96.6336L75.7784 96.3113L78.1449 89.0279L80.0953 89.6617C80.5189 89.7993 80.8679 89.964 81.1423 90.1559C81.4168 90.3477 81.6234 90.5586 81.7623 90.7886C81.9049 91.0197 81.9821 91.2687 81.994 91.5354C82.0109 91.7996 81.9728 92.0748 81.8798 92.3608C81.8062 92.5875 81.7028 92.7921 81.5695 92.9747C81.4375 93.1536 81.2774 93.3049 81.0893 93.4286C80.9062 93.5498 80.6963 93.6397 80.4595 93.6983C80.2277 93.7545 79.9758 93.7712 79.7039 93.7485C79.8853 93.8855 80.0176 94.0661 80.1008 94.2903C80.189 94.512 80.2597 94.7937 80.3129 95.1355L80.6879 97.9065ZM80.8162 92.1077C80.9429 91.7176 80.9151 91.3861 80.7327 91.1133C80.554 90.8416 80.2436 90.634 79.8015 90.4903L78.8653 90.1861L78.0831 92.5935L78.8855 92.8542C79.1196 92.9303 79.3379 92.9725 79.5406 92.9808C79.7481 92.9867 79.9338 92.9587 80.0977 92.8969C80.2664 92.8326 80.4108 92.7358 80.5309 92.6064C80.6559 92.4745 80.751 92.3083 80.8162 92.1077Z" fill="black"/>
<path d="M69.5448 90.1704C69.4313 90.5196 69.2948 90.8449 69.1353 91.1463C68.9795 91.4489 68.7975 91.7184 68.5893 91.9547C68.3811 92.1909 68.1454 92.3916 67.8823 92.5567C67.6204 92.718 67.326 92.8339 66.9992 92.9043C66.6724 92.9747 66.3125 92.9954 65.9194 92.9662C65.5276 92.9334 65.0995 92.8415 64.6351 92.6906L63.0748 92.1837L65.4413 84.9003L67.3192 85.5105C68.4561 85.8798 69.2077 86.4485 69.5743 87.2166C69.9457 87.9821 69.9359 88.9667 69.5448 90.1704ZM68.4792 89.9043C68.647 89.3879 68.7405 88.9357 68.7598 88.5476C68.7791 88.1596 68.7259 87.824 68.6002 87.5408C68.4745 87.2577 68.2788 87.0195 68.013 86.8264C67.7484 86.6295 67.4154 86.4659 67.0142 86.3355L66.1616 86.0585L64.3455 91.6478L65.0867 91.8886C66.7436 92.427 67.8744 91.7655 68.4792 89.9043Z" fill="white"/>
<path d="M57.9904 83.4158L55.8338 82.7151L53.7425 89.1514L52.7395 88.8255L54.8307 82.3892L52.6742 81.6884L52.9494 80.8414L58.2656 82.5688L57.9904 83.4158Z" fill="black"/>
<path d="M86.0152 81.8899C85.8028 82.5438 85.5413 83.0831 85.2307 83.5079C84.9239 83.934 84.5879 84.2602 84.2227 84.4865C83.8625 84.7104 83.4812 84.8411 83.0787 84.8788C82.6812 84.9139 82.2874 84.8681 81.8974 84.7414C81.4293 84.5893 81.0478 84.3729 80.7529 84.0923C80.4629 83.8091 80.2547 83.4704 80.1281 83.076C80.0053 82.6829 79.9624 82.2398 79.9994 81.7466C80.0377 81.2497 80.1503 80.7134 80.3374 80.1375C80.5475 79.4911 80.8059 78.9549 81.1127 78.5288C81.4196 78.1028 81.7531 77.7778 82.1133 77.554C82.4785 77.3276 82.8598 77.1969 83.2573 77.1618C83.656 77.1229 84.0504 77.1668 84.4405 77.2936C84.9086 77.4457 85.2877 77.6633 85.5776 77.9465C85.8713 78.2308 86.0814 78.5702 86.2079 78.9645C86.3357 79.3551 86.381 79.797 86.344 80.2902C86.3107 80.7846 86.2011 81.3178 86.0152 81.8899ZM84.9607 81.6274C85.0996 81.2002 85.1929 80.7992 85.2407 80.4246C85.2934 80.0474 85.289 79.7071 85.2274 79.4037C85.1658 79.1003 85.0427 78.8406 84.8583 78.6245C84.6775 78.4097 84.4255 78.2498 84.1023 78.1448C83.7903 78.0434 83.4962 78.0321 83.2201 78.1107C82.9489 78.1869 82.6986 78.3315 82.4692 78.5445C82.241 78.7537 82.0349 79.0215 81.8509 79.3478C81.668 79.6704 81.5132 80.0267 81.3865 80.4168C81.2465 80.8477 81.1519 81.2524 81.1029 81.6307C81.0551 82.0054 81.0602 82.3438 81.118 82.646C81.1808 82.9457 81.3026 83.203 81.4834 83.4178C81.6641 83.6326 81.9142 83.7919 82.2337 83.8957C82.5458 83.9971 82.8393 84.0103 83.1142 83.9354C83.3903 83.8567 83.6424 83.7127 83.8706 83.5035C84.1037 83.2917 84.3117 83.0245 84.4945 82.7019C84.6774 82.3794 84.8328 82.0212 84.9607 81.6274Z" fill="black"/>
<path d="M72.7036 81.6433L71.6225 81.292L71.6314 79.539L68.5999 78.554L67.5712 79.9756L66.5403 79.6407L71.3253 73.1431L72.685 73.5849L72.7036 81.6433ZM71.6351 78.5606L71.6692 74.2652L69.172 77.7603L71.6351 78.5606Z" fill="black"/>
<path d="M59.3814 77.3146L55.2409 75.9693L57.6074 68.6859L61.7479 70.0312L61.4763 70.8671L58.3278 69.8441L57.5945 72.101L60.6204 73.0842L60.3488 73.9201L57.3229 72.9369L56.5081 75.4445L59.6566 76.4676L59.3814 77.3146Z" fill="black"/>
</g>
<g opacity="0.6">
<rect x="211.5" y="-3" width="39" height="39" fill="white" stroke="black"/>
<path d="M237 23.5V36H238V23.5H250.5V22.5H238V10.5H250.5V9.5H238V-3H237V9.5H225V-3H224V9.5H211.5V10.5H224V22.5H211.5V23.5H224V36H225V23.5H237Z" fill="black"/>
<path d="M243.473 26.7207H241.709V25.8418H246.291V26.7207H244.527V32.6094H246.291V33.5H241.709V32.6094H243.473V26.7207Z" fill="black"/>
<path d="M233.654 28.1855C233.654 28.498 233.596 28.8086 233.479 29.1172C233.361 29.4219 233.18 29.6953 232.934 29.9375C232.687 30.1797 232.373 30.377 231.99 30.5293C231.607 30.6777 231.15 30.752 230.619 30.752H229.67V33.5H228.627V25.8418H230.783C231.162 25.8418 231.525 25.8848 231.873 25.9707C232.221 26.0527 232.525 26.1875 232.787 26.375C233.053 26.5625 233.264 26.8047 233.42 27.1016C233.576 27.3984 233.654 27.7598 233.654 28.1855ZM232.57 28.2324C232.57 27.7402 232.408 27.3633 232.084 27.1016C231.764 26.8398 231.314 26.709 230.736 26.709H229.67V29.8613H230.643C231.26 29.8613 231.734 29.7266 232.066 29.457C232.402 29.1875 232.57 28.7793 232.57 28.2324Z" fill="black"/>
<path d="M220.531 33.2129C219.918 33.4668 219.275 33.5938 218.604 33.5938C217.521 33.5938 216.689 33.2715 216.107 32.627C215.529 31.9785 215.24 31.0215 215.24 29.7559C215.24 29.1426 215.32 28.5879 215.48 28.0918C215.641 27.5957 215.869 27.1758 216.166 26.832C216.463 26.4844 216.822 26.2168 217.244 26.0293C217.666 25.8418 218.139 25.748 218.662 25.748C219.018 25.748 219.348 25.7793 219.652 25.8418C219.957 25.9004 220.25 25.9922 220.531 26.1172V27.1426C220.254 26.9902 219.967 26.875 219.67 26.7969C219.373 26.7148 219.049 26.6738 218.697 26.6738C218.338 26.6738 218.012 26.7422 217.719 26.8789C217.43 27.0117 217.184 27.207 216.98 27.4648C216.777 27.7188 216.621 28.0312 216.512 28.4023C216.402 28.7695 216.348 29.1895 216.348 29.6621C216.348 30.6543 216.549 31.4023 216.951 31.9062C217.354 32.4102 217.943 32.6621 218.721 32.6621C219.049 32.6621 219.363 32.625 219.664 32.5508C219.965 32.4727 220.254 32.3652 220.531 32.2285V33.2129Z" fill="black"/>
<path d="M246.473 20.5H242.066V12.8418H243.127V19.6094H246.473V20.5Z" fill="black"/>
<path d="M234.24 20.5H233.104L232.57 18.8301H229.383L228.844 20.5H227.76L230.303 12.8418H231.732L234.24 20.5ZM232.271 17.8984L230.977 13.8027L229.682 17.8984H232.271Z" fill="white"/>
<path d="M220.859 20.5H219.682L218.539 18.0508C218.453 17.8633 218.365 17.709 218.275 17.5879C218.186 17.4629 218.088 17.3652 217.982 17.2949C217.881 17.2207 217.768 17.168 217.643 17.1367C217.521 17.1055 217.385 17.0898 217.232 17.0898H216.74V20.5H215.697V12.8418H217.748C218.193 12.8418 218.576 12.8906 218.896 12.9883C219.217 13.0859 219.479 13.2227 219.682 13.3984C219.889 13.5742 220.039 13.7871 220.133 14.0371C220.23 14.2832 220.279 14.5566 220.279 14.8574C220.279 15.0957 220.244 15.3223 220.174 15.5371C220.104 15.748 219.998 15.9414 219.857 16.1172C219.721 16.2891 219.549 16.4395 219.342 16.5684C219.139 16.6934 218.904 16.7871 218.639 16.8496C218.854 16.9238 219.035 17.0547 219.184 17.2422C219.336 17.4258 219.49 17.6719 219.646 17.9805L220.859 20.5ZM219.189 14.9453C219.189 14.5352 219.061 14.2285 218.803 14.0254C218.549 13.8223 218.189 13.7207 217.725 13.7207H216.74V16.252H217.584C217.83 16.252 218.051 16.2246 218.246 16.1699C218.445 16.1113 218.613 16.0273 218.75 15.918C218.891 15.8047 218.998 15.668 219.072 15.5078C219.15 15.3438 219.189 15.1562 219.189 14.9453Z" fill="black"/>
<path d="M243.473 0.720703H241.709V-0.158203H246.291V0.720703H244.527V6.60938H246.291V7.5H241.709V6.60938H243.473V0.720703Z" fill="black"/>
<path d="M233.232 7.5H228.879V-0.158203H233.232V0.720703H229.922V3.09375H233.104V3.97266H229.922V6.60938H233.232V7.5Z" fill="black"/>
<path d="M221.012 7.5H219.992L219.84 2.72461L219.775 0.890625L219.418 1.95703L218.287 5.00391H217.566L216.488 2.07422L216.131 0.890625L216.107 2.80664L215.973 7.5H214.988L215.363 -0.158203H216.6L217.631 2.72461L217.965 3.69727L218.287 2.72461L219.371 -0.158203H220.643L221.012 7.5Z" fill="black"/>
</g>
<g opacity="0.6">
<rect x="5.59303" y="13.3851" width="39" height="39" transform="rotate(-12 5.59303 13.3851)" fill="white" stroke="black"/>
<path d="M36.0454 34.0043L38.6443 46.2311L39.6225 46.0232L37.0236 33.7964L49.2504 31.1975L49.0425 30.2193L36.8157 32.8182L34.3207 21.0804L46.5476 18.4816L46.3397 17.5034L34.1128 20.1023L31.5139 7.87546L30.5358 8.08337L33.1347 20.3102L21.3969 22.8052L18.798 10.5783L17.8199 10.7862L20.4188 23.0131L8.19191 25.612L8.39983 26.5901L20.6267 23.9912L23.1216 35.729L10.8948 38.3279L11.1027 39.306L23.3295 36.7071L25.9284 48.934L26.9066 48.7261L24.3077 36.4992L36.0454 34.0043Z" fill="black"/>
<path d="M47.5221 41.7883L46.1924 42.0709L43.0159 37.864L42.0663 36.4964L42.8691 40.2733L43.3783 42.669L42.4269 42.8713L40.8347 35.3804L42.1471 35.1014L45.1681 39.0838L46.2831 40.6379L45.4304 36.626L44.9784 34.4996L45.9298 34.2974L47.5221 41.7883Z" fill="black"/>
<path d="M30.3304 38.5117L28.6052 38.8784L28.4225 38.0187L32.9044 37.066L33.0871 37.9257L31.362 38.2924L32.5863 44.0524L34.3115 43.6857L34.4966 44.5569L30.0147 45.5096L29.8296 44.6384L31.5547 44.2717L30.3304 38.5117Z" fill="black"/>
<path d="M20.8666 40.5353L18.6485 41.0067L20.0556 47.6264L19.0239 47.8457L17.6169 41.226L15.3989 41.6975L15.2137 40.8263L20.6814 39.6641L20.8666 40.5353Z" fill="black"/>
<path d="M43.5955 22.4137L41.3775 22.8851L42.7846 29.5048L41.7529 29.7241L40.3459 23.1044L38.1279 23.5759L37.9427 22.7047L43.4104 21.5425L43.5955 22.4137Z" fill="black"/>
<path d="M31.6579 27.9043C31.8008 28.5768 31.844 29.1746 31.7875 29.6978C31.7348 30.2202 31.6069 30.6707 31.4039 31.0493C31.2038 31.4233 30.9389 31.7272 30.6093 31.961C30.2826 32.1902 29.9186 32.3474 29.5174 32.4327C29.036 32.535 28.5974 32.5384 28.2017 32.4428C27.809 32.3425 27.4593 32.1533 27.1526 31.8751C26.8496 31.596 26.5909 31.2337 26.3764 30.7881C26.1611 30.3386 25.9905 29.8178 25.8646 29.2256C25.7233 28.5607 25.679 27.9671 25.7317 27.4448C25.7844 26.9224 25.9107 26.4742 26.1108 26.1002C26.3139 25.7216 26.5787 25.4177 26.9054 25.1885C27.2313 24.9555 27.5948 24.7964 27.996 24.7111C28.4774 24.6088 28.9145 24.6077 29.3072 24.708C29.7037 24.8074 30.0553 24.9962 30.3621 25.2745C30.668 25.5489 30.9282 25.9089 31.1428 26.3545C31.3611 26.7993 31.5328 27.3159 31.6579 27.9043ZM30.6134 28.2042C30.52 27.7648 30.4004 27.3709 30.2544 27.0225C30.1115 26.6695 29.9375 26.3771 29.7325 26.1451C29.5274 25.9131 29.291 25.7497 29.0232 25.6549C28.7593 25.5592 28.4611 25.5467 28.1287 25.6174C27.8078 25.6856 27.5474 25.8228 27.3476 26.029C27.1509 26.2306 27.0064 26.4809 26.9142 26.7801C26.8212 27.0754 26.7766 27.4103 26.7804 27.7849C26.7833 28.1557 26.8274 28.5417 26.9127 28.9429C27.0069 29.3861 27.1274 29.7838 27.2741 30.136C27.4201 30.4844 27.5936 30.7749 27.7949 31.0077C27.9991 31.2359 28.2332 31.3978 28.4971 31.4934C28.7611 31.5891 29.0573 31.602 29.3859 31.5321C29.7069 31.4639 29.9677 31.3286 30.1682 31.1262C30.368 30.92 30.5144 30.6693 30.6074 30.374C30.7034 30.074 30.7499 29.7386 30.747 29.3679C30.744 28.9971 30.6995 28.6092 30.6134 28.2042Z" fill="white"/>
<path d="M19.2555 34.5061L14.9456 35.4222L13.3533 27.9313L14.3907 27.7108L15.7978 34.3305L19.0704 33.6349L19.2555 34.5061Z" fill="black"/>
<path d="M42.7353 16.2249L41.6235 16.4612L40.7547 14.9386L37.6369 15.6013L37.4568 17.3468L36.3965 17.5722L37.2916 9.55266L38.6901 9.25541L42.7353 16.2249ZM40.2687 14.0895L38.1505 10.3525L37.7355 14.6279L40.2687 14.0895Z" fill="black"/>
<path d="M29.0336 19.1372L24.7752 20.0424L23.183 12.5515L27.4414 11.6464L27.6241 12.5061L24.3859 13.1944L24.8793 15.5156L27.9914 14.8541L28.1742 15.7138L25.062 16.3753L25.6102 18.9544L28.8484 18.2661L29.0336 19.1372Z" fill="black"/>
<path d="M15.6254 16.5541C15.6904 16.8597 15.6977 17.1757 15.6472 17.5019C15.5959 17.8243 15.4751 18.1295 15.2847 18.4176C15.0944 18.7056 14.8278 18.964 14.485 19.1926C14.1414 19.4174 13.7098 19.585 13.1902 19.6954L12.2617 19.8928L12.8331 22.5808L11.8129 22.7976L10.2206 15.3068L12.3298 14.8585C12.7004 14.7797 13.0647 14.7462 13.4226 14.758C13.7797 14.7659 14.1058 14.8344 14.4008 14.9634C14.6996 15.0916 14.9562 15.2846 15.1708 15.5425C15.3854 15.8004 15.5369 16.1376 15.6254 16.5541ZM14.5749 16.8253C14.4725 16.3439 14.2356 16.0088 13.8641 15.8202C13.4963 15.6308 13.0297 15.5962 12.4642 15.7164L11.4211 15.9382L12.0765 19.0216L13.0279 18.8194C13.6316 18.6911 14.0679 18.4606 14.3366 18.1279C14.6091 17.7944 14.6886 17.3602 14.5749 16.8253Z" fill="black"/>
</g>
<g opacity="0.6">
<rect x="248.926" y="68.0647" width="39" height="39" transform="rotate(8 248.926 68.0647)" fill="white" stroke="black"/>
<path d="M270.489 97.8557L268.75 110.234L269.74 110.373L271.48 97.9949L283.858 99.7346L283.997 98.7443L271.619 97.0046L273.289 85.1214L285.667 86.8611L285.806 85.8708L273.428 84.1312L275.168 71.7528L274.177 71.6136L272.438 83.992L260.554 82.3219L262.294 69.9435L261.304 69.8044L259.564 82.1827L247.186 80.4431L247.047 81.4333L259.425 83.173L257.755 95.0562L245.377 93.3165L245.237 94.3068L257.616 96.0465L255.876 108.425L256.866 108.564L258.606 96.1857L270.489 97.8557Z" fill="black"/>
<path d="M278.611 109.096L277.265 108.906L275.719 103.867L275.295 102.257L274.757 106.081L274.416 108.506L273.453 108.371L274.519 100.787L275.848 100.974L277.324 105.749L277.841 107.591L278.412 103.529L278.714 101.376L279.677 101.512L278.611 109.096Z" fill="black"/>
<path d="M265.988 107.321L264.821 107.157L264.031 104.573C263.972 104.375 263.906 104.21 263.834 104.078C263.762 103.942 263.679 103.831 263.585 103.747C263.494 103.659 263.39 103.591 263.27 103.543C263.155 103.495 263.021 103.461 262.87 103.44L262.383 103.371L261.908 106.748L260.876 106.603L261.941 99.0192L263.972 99.3046C264.413 99.3666 264.786 99.4682 265.089 99.6095C265.393 99.7508 265.633 99.9226 265.81 100.125C265.99 100.328 266.109 100.56 266.167 100.82C266.23 101.078 266.24 101.355 266.198 101.653C266.165 101.889 266.099 102.108 265.999 102.311C265.9 102.51 265.769 102.687 265.605 102.842C265.446 102.993 265.255 103.118 265.032 103.217C264.813 103.312 264.568 103.372 264.296 103.397C264.499 103.501 264.661 103.656 264.781 103.862C264.907 104.065 265.025 104.33 265.137 104.658L265.988 107.321ZM265.107 101.588C265.164 101.182 265.079 100.861 264.852 100.624C264.629 100.387 264.287 100.236 263.827 100.172L262.852 100.035L262.5 102.541L263.335 102.659C263.579 102.693 263.801 102.697 264.002 102.67C264.208 102.639 264.386 102.58 264.536 102.49C264.691 102.398 264.817 102.277 264.913 102.129C265.013 101.977 265.078 101.797 265.107 101.588Z" fill="black"/>
<path d="M253.67 101.638C253.619 102.001 253.541 102.345 253.437 102.67C253.336 102.995 253.203 103.292 253.039 103.561C252.875 103.83 252.678 104.068 252.447 104.276C252.218 104.481 251.948 104.646 251.638 104.772C251.329 104.898 250.978 104.981 250.586 105.021C250.194 105.056 249.756 105.04 249.273 104.972L247.648 104.744L248.714 97.1602L250.669 97.435C251.853 97.6014 252.692 98.0309 253.186 98.7237C253.685 99.4131 253.846 100.384 253.67 101.638ZM252.575 101.561C252.65 101.023 252.664 100.561 252.615 100.176C252.567 99.7904 252.456 99.4692 252.283 99.2121C252.111 98.9551 251.876 98.7545 251.581 98.6105C251.286 98.4625 250.93 98.3592 250.512 98.3005L249.625 98.1757L248.807 103.995L249.578 104.104C251.304 104.346 252.302 103.499 252.575 101.561Z" fill="black"/>
<path d="M278.26 89.0724L276.513 88.827L276.636 87.9566L281.173 88.5943L281.051 89.4647L279.304 89.2192L278.485 95.0506L280.231 95.296L280.107 96.178L275.57 95.5403L275.694 94.6583L277.44 94.9038L278.26 89.0724Z" fill="black"/>
<path d="M268.106 87.6572L264.886 87.2047L264.54 89.6649L267.592 90.0938L267.471 90.9583L264.419 90.5294L263.944 93.9064L262.888 93.758L263.954 86.1743L268.23 86.7753L268.106 87.6572Z" fill="white"/>
<path d="M254.302 92.5513L249.991 91.9455L251.057 84.3618L255.368 84.9677L255.246 85.838L251.968 85.3773L251.637 87.7272L254.788 88.17L254.666 89.0404L251.515 88.5976L251.148 91.2086L254.426 91.6694L254.302 92.5513Z" fill="black"/>
<path d="M283.358 76.6729L281.112 76.3573L280.17 83.0591L279.126 82.9123L280.068 76.2106L277.822 75.895L277.946 75.013L283.481 75.791L283.358 76.6729Z" fill="black"/>
<path d="M268.985 81.4871L264.674 80.8812L265.74 73.2975L270.051 73.9034L269.929 74.7738L266.65 74.313L266.32 76.663L269.471 77.1058L269.348 77.9761L266.198 77.5333L265.831 80.1444L269.109 80.6051L268.985 81.4871Z" fill="black"/>
<path d="M257.042 72.9745L253.822 72.5219L253.476 74.9821L256.528 75.4111L256.406 76.2756L253.354 75.8467L252.88 79.2236L251.824 79.0752L252.89 71.4915L257.166 72.0925L257.042 72.9745Z" fill="black"/>
</g>
</g>
<rect x="1" y="1" width="282" height="106" rx="11" stroke="#DCD6CA" stroke-width="2"/>
<defs>
<clipPath id="clip0_35_2">
<rect x="2" y="2" width="280" height="104" rx="10" fill="white"/>
</clipPath>
</defs>
</svg>
